<?xml version="1.0" encoding="UTF-8" standalone="no"?>
<svg
   xmlns:dc="http://purl.org/dc/elements/1.1/"
   xmlns:cc="http://creativecommons.org/ns#"
   xmlns:rdf="http://www.w3.org/1999/02/22-rdf-syntax-ns#"
   xmlns:svg="http://www.w3.org/2000/svg"
   xmlns="http://www.w3.org/2000/svg"
   xmlns:sodipodi="http://sodipodi.sourceforge.net/DTD/sodipodi-0.dtd"
   xmlns:inkscape="http://www.inkscape.org/namespaces/inkscape"
   id="Layer_1"
   data-name="Layer 1"
   viewBox="0 0 184.3678 262.24443"
   version="1.1"
   sodipodi:docname="lemoncello.svg"
   inkscape:version="0.92.2 (5c3e80d, 2017-08-06)"
   width="1.920498in"
   height="2.7317126in"
   inkscape:export-filename="/Users/urian/Downloads/lemoncello.png"
   inkscape:export-xdpi="109.86733"
   inkscape:export-ydpi="109.86733">
  <metadata
     id="metadata5977">
    <rdf:RDF>
      <cc:Work
         rdf:about="">
        <dc:format>image/svg+xml</dc:format>
        <dc:type
           rdf:resource="http://purl.org/dc/dcmitype/StillImage" />
        <dc:title>dgs</dc:title>
      </cc:Work>
    </rdf:RDF>
  </metadata>
  <defs
     id="defs5975" />
  <sodipodi:namedview
     pagecolor="#ffffff"
     bordercolor="#666666"
     borderopacity="1"
     objecttolerance="10"
     gridtolerance="10"
     guidetolerance="10"
     inkscape:pageopacity="0"
     inkscape:pageshadow="2"
     inkscape:window-width="1096"
     inkscape:window-height="651"
     id="namedview5973"
     showgrid="false"
     inkscape:zoom="1.2129429"
     inkscape:cx="29.644296"
     inkscape:cy="134.87782"
     inkscape:window-x="198"
     inkscape:window-y="23"
     inkscape:window-maximized="0"
     inkscape:current-layer="Layer_1"
     units="in"
     fit-margin-top="0"
     fit-margin-left="0"
     fit-margin-right="0"
     fit-margin-bottom="0" />
  <title
     id="title5956">dgs</title>
  <g
     id="g6649"
     transform="matrix(4,0,0,4,-8.445449,-9.9700001)">
    <path
       id="path5968"
       d="m 3,39.19 a 11.91,11.91 0 0 0 0.45,10 A 17.89,17.89 0 0 0 7,54.47 6.37,6.37 0 0 1 8.93,59 16.21,16.21 0 0 0 9.78,63.57 c 1.61,4.42 5.67,5.75 9.47,3.19 a 17.43,17.43 0 0 0 2.81,-2.37 6.82,6.82 0 0 1 3.46,-2.11 c 5,-1.09 8.6,-4.36 12,-8 4.71,-5 7.1,-10.84 6.14,-17.9 a 19.66,19.66 0 0 1 -0.17,-2.33 12.56,12.56 0 0 0 -1.43,-5.37 c -1.75,-3.55 -4.29,-5.91 -8.47,-5.44 a 2,2 0 0 0 -1.16,0.54 0.94,0.94 0 0 0 0.21,1.22 c 1.38,1.85 2.63,3.8 4.14,5.53 4.31,4.95 3.22,15.69 -0.29,19.75 -2.83,3.3 -5.78,6.49 -9.49,8.72 a 7,7 0 0 1 -2,1 21.92,21.92 0 0 0 -7.05,3.1 c -1.5,0.92 -2.54,0.38 -2.32,-1.3 C 16,59 14.92,57.12 13,55.33 A 26.36,26.36 0 0 1 7,46.68 6.61,6.61 0 0 1 6.55,41.24 c 3.36,-8.1 7.9,-14.89 17.09,-16.4 a 3.48,3.48 0 0 0 2.42,-1.84 7.19,7.19 0 0 0 1.06,-3.56 3.54,3.54 0 0 1 1.2,-2.44 2.26,2.26 0 0 1 1.94,-1 1.86,1.86 0 0 1 1.35,1.69 c 0.13,0.77 0.24,1.54 0.31,2.31 0.07,0.77 0.16,1.65 1.21,1.5 a 1.68,1.68 0 0 0 1.3,-1.69 3.6,3.6 0 0 0 0,-1.84 C 32.79,14.67 32.82,11.11 33.61,7.43 34.05,5.37 32.69,1.8 30.76,2.61 c -0.2,0.08 -1.38,0.79 -0.49,2.46 1.2,2.26 1.13,7.67 -1.14,8.74 a 13.1,13.1 0 0 0 -3.66,2.64 c -1.69,1.66 -1.69,3.85 -2.43,5.81 a 8.81,8.81 0 0 0 -6,1.32 A 37.1,37.1 0 0 0 7.71,31.71 27.67,27.67 0 0 0 3,39.19 Z"
       inkscape:connector-curvature="0" />
    <path
       id="path5970"
       d="m 40.93,15.38 a 4.78,4.78 0 0 1 -0.88,-0.08 9.23,9.23 0 0 1 -2.72,-1 l -0.4,-0.22 -0.64,-0.35 a 1.84,1.84 0 0 0 -0.88,-0.17 h -0.28 a 9.61,9.61 0 0 0 -3.05,0.81 c -0.41,0.16 -0.86,0.31 -1.42,0.48 L 30.17,15 v -0.51 c 0,-0.13 0,-0.27 0,-0.4 0,-0.13 0,-0.18 0,-0.27 v -0.3 l 0.28,-0.13 3.16,-1.32 a 2.36,2.36 0 0 1 0.84,-0.22 2.65,2.65 0 0 0 2,-1.26 8,8 0 0 1 2.35,-2.23 h 0.07 C 40.87,7.27 43.61,5.78 46,5.78 A 5,5 0 0 1 47,5.89 1.53,1.53 0 0 1 48.08,6.51 2,2 0 0 1 48,8.08 3.51,3.51 0 0 1 47.57,8.94 c -1,1.51 -2.33,3.5 -3,4.41 a 4.51,4.51 0 0 1 -3.64,2.03 z m -2.89,-3 a 5.85,5.85 0 0 0 3.15,0.88 h 0.62 a 2.54,2.54 0 0 0 1.71,-1.09 C 44.07,11.45 45.42,9.39 45.9,8.6 A 0.27,0.27 0 0 0 46,8.33 0.19,0.19 0 0 0 45.87,8.25 H 45.73 A 2.89,2.89 0 0 0 45,8.08 11.56,11.56 0 0 0 39.65,10 h 0.09 c 1,-0.28 2,-0.57 2.37,-0.67 h 0.19 a 0.88,0.88 0 0 1 0.83,0.84 1.48,1.48 0 0 1 -0.27,1.16 0.75,0.75 0 0 1 -0.57,0.28 v 0 a 18.5,18.5 0 0 0 -3,0.53 z"
       inkscape:connector-curvature="0" />
    <g
       id="g6038"
       transform="matrix(0.0592177,0.01149844,-0.00961139,0.06312212,26.423534,16.611636)">
      <path
         id="path6036"
         d="m 94.2,188 c 0,0 22.9,8.8 21.5,18 -0.5,3.2 -6.1,2.2 -8.9,3.7 -2.1,1.1 -4.4,2.1 -5.9,3.9 -2.2,2.6 -4.1,5.9 -4.3,9.2 -0.2,2.8 -0.4,6.8 0.1,9.2 0.7,3.1 3.2,6.9 5.3,9.4 2.5,2.9 6.8,5.8 10.2,7.6 3.8,2.1 9.1,1.9 13.4,2.4 4.5,0.5 8.7,-1.1 12.9,-2.6 5,-1.9 10.1,-4.5 13.3,-8.7 2.5,-3.3 3.3,-7.7 3.8,-11.8 0.6,-5.4 0,-10.9 -1.2,-16.2 -1.2,-5.2 -2.7,-10.6 -5.8,-15 -3.4,-4.8 -8.4,-8.4 -13.4,-11.6 -4.9,-3 -10.4,-5.2 -15.9,-6.7 -5.6,-1.5 -11.4,-2.1 -17.2,-2.2 -6.7,-0.1 -13.5,0.4 -20.1,2 -6.6,1.5 -13,4 -19,7.1 -5.6,2.9 -11,6.3 -15.7,10.5 -6.7,6.1 -12.2,13.5 -17.3,21.1 -3.7,5.5 -6.8,11.5 -9.6,17.6 -4.3,9.4 -8.3,18.9 -10.8,28.9 -3.9,15.6 -4.5,31.9 -6.1,47.9 -2.2,20.7 -5.1,62.3 -5.1,62.3 l -12.1,4.1 9.7,5 c 0,0 -1.6,34.7 -2.3,52 -0.7,15.5 0.1,31.2 -2.1,46.6 -1.6,11.1 -3.1,22.4 -5.9,33.3 -3,11.6 -8.2,23.3 -13.5,34.3 -3.7,7.7 -8.6,14.9 -14.3,21.3 -5.8,6.4 -12.3,12.4 -19.8,16.7 -6,3.5 -12.9,5.1 -19.6,7 -3,0.8 -9.1,1.9 -9.1,1.9 0,0 -13,-14.3 -13.9,-23.3 -0.2,-2.4 -0.4,-5.3 1.3,-7 3.4,-3.4 11,-1.5 14.7,-4.6 3.7,-3.2 5.7,-8.1 7.1,-12.8 1.3,-4.6 1.7,-9.7 0.8,-14.5 -0.6,-3.3 -2.2,-6.5 -4.3,-9.1 -2.4,-2.9 -5.8,-5 -9.2,-6.8 -4.2,-2.2 -8.7,-4.2 -13.4,-4.8 -4.1,-0.6 -8.5,-0.3 -12.5,0.9 -5.7,1.8 -11.3,4.9 -15.3,9.3 -4.2,4.6 -6.8,10.7 -8.2,16.8 -1.4,6.4 -0.7,13.2 0.2,19.6 0.8,5.4 2,10.9 4.3,15.8 2.2,4.7 5.2,9 8.8,12.8 4,4.2 8.8,7.4 13.7,10.4 6.1,3.8 12.4,8 19.5,9.5 6.2,1.4 12.8,0.5 19.1,-0.4 13.4,-1.9 27.2,-6.4 39.6,-12 8.5,-3.9 17.6,-9.5 23.7,-14.4 5.2,-4.2 9.6,-8.3 14,-13.4 5.9,-7 11.2,-14.8 15.9,-22.7 2.4,-4.2 4.3,-8.5 6,-13.1 3.3,-9.3 6,-19.4 8.1,-29 2.2,-10 3.1,-19.8 4.7,-30 2.2,-14 3.7,-28.1 4.6,-42.2 0.5,-7.5 0.5,-22.5 0.5,-22.5 l 10.7,-3.3 -11.2,-6.1 c 0,0 1.7,-45.1 3.5,-67.6 1.4,-17.9 3.9,-35.7 5.8,-53.5 1.1,-10.3 1.2,-20.8 3.4,-30.9 2,-8.9 5,-17.5 8.8,-25.8 3.1,-6.7 6.4,-13.4 11.2,-19 4,-4.6 8.8,-8.5 14.1,-11.5 2.7,-1.4 8.7,-3 8.7,-3 z"
         class="st0"
         inkscape:connector-curvature="0" />
    </g>
  </g>
</svg>
